o Cylinder
v 0.11564647424083674 1.8112001403602114 0.11057075495470907
v 0.11057075495470908 1.8112001403602114 -0.11564647424083674
v -0.11564647424083672 1.8112001403602114 -0.11057075495470908
v -0.1105707549547091 1.8112001403602114 0.11564647424083672
v 0.11564647424083671 1.8112001403602114 0.1105707549547091
v 0.2096092332152144 1.3862001284392824 0.20040949206819714
v 0.20040949206819714 1.3862001284392824 -0.2096092332152144
v -0.20960923321521438 1.3862001284392824 -0.20040949206819716
v -0.20040949206819716 1.3862001284392824 0.20960923321521438
v 0.20960923321521435 1.3862001284392824 0.2004094920681972
v 0.3035719921895921 0.9612001165183535 0.29024822918168525
v 0.29024822918168525 0.9612001165183535 -0.3035719921895921
v -0.303571992189592 0.9612001165183535 -0.2902482291816853
v -0.2902482291816853 0.9612001165183535 0.303571992189592
v 0.303571992189592 0.9612001165183535 0.2902482291816853
v 0.39753477270480464 0.5362001045974245 0.3800869868905818
v 0.3800869868905818 0.5362001045974245 -0.39753477270480464
v -0.3975347727048046 0.5362001045974245 -0.38008698689058185
v -0.38008698689058185 0.5362001045974245 0.3975347727048046
v 0.39753477270480453 0.5362001045974245 0.3800869868905819
v 0.4914975316791823 0.11120009267649555 0.4699257240040699
v 0.46992572400406996 0.11120009267649555 -0.49149753167918225
v -0.49149753167918225 0.11120009267649555 -0.46992572400406996
v -0.46992572400407 0.11120009267649555 0.4914975316791822
v 0.4914975316791822 0.11120009267649555 0.46992572400407
vt 0 1
vt 0.25 1
vt 0.5 1
vt 0.75 1
vt 1 1
vt 0 0.75
vt 0.25 0.75
vt 0.5 0.75
vt 0.75 0.75
vt 1 0.75
vt 0 0.5
vt 0.25 0.5
vt 0.5 0.5
vt 0.75 0.5
vt 1 0.5
vt 0 0.25
vt 0.25 0.25
vt 0.5 0.25
vt 0.75 0.25
vt 1 0.25
vt 0 0
vt 0.25 0
vt 0.5 0
vt 0.75 0
vt 1 0
vn 0.6911786569093411 0.292504339649229 0.6608428523630773
vn 0.6608428523630773 0.292504339649229 -0.6911786569093411
vn -0.691178656909341 0.292504339649229 -0.6608428523630774
vn -0.6608428523630774 0.292504339649229 0.691178656909341
vn 0.691178656909341 0.292504339649229 0.6608428523630775
vn 0.6911786569093411 0.292504339649229 0.6608428523630773
vn 0.6608428523630773 0.292504339649229 -0.6911786569093411
vn -0.691178656909341 0.292504339649229 -0.6608428523630774
vn -0.6608428523630774 0.292504339649229 0.691178656909341
vn 0.691178656909341 0.292504339649229 0.6608428523630775
vn 0.6911786569093411 0.292504339649229 0.6608428523630773
vn 0.6608428523630773 0.292504339649229 -0.6911786569093411
vn -0.691178656909341 0.292504339649229 -0.6608428523630774
vn -0.6608428523630774 0.292504339649229 0.691178656909341
vn 0.691178656909341 0.292504339649229 0.6608428523630775
vn 0.6911786569093411 0.292504339649229 0.6608428523630773
vn 0.6608428523630773 0.292504339649229 -0.6911786569093411
vn -0.691178656909341 0.292504339649229 -0.6608428523630774
vn -0.6608428523630774 0.292504339649229 0.691178656909341
vn 0.691178656909341 0.292504339649229 0.6608428523630775
vn 0.6911786569093411 0.292504339649229 0.6608428523630773
vn 0.6608428523630773 0.292504339649229 -0.6911786569093411
vn -0.691178656909341 0.292504339649229 -0.6608428523630774
vn -0.6608428523630774 0.292504339649229 0.691178656909341
vn 0.691178656909341 0.292504339649229 0.6608428523630775
f 1/1/1 6/6/6 2/2/2
f 6/6/6 7/7/7 2/2/2
f 6/6/6 11/11/11 7/7/7
f 11/11/11 12/12/12 7/7/7
f 11/11/11 16/16/16 12/12/12
f 16/16/16 17/17/17 12/12/12
f 16/16/16 21/21/21 17/17/17
f 21/21/21 22/22/22 17/17/17
f 2/2/2 7/7/7 3/3/3
f 7/7/7 8/8/8 3/3/3
f 7/7/7 12/12/12 8/8/8
f 12/12/12 13/13/13 8/8/8
f 12/12/12 17/17/17 13/13/13
f 17/17/17 18/18/18 13/13/13
f 17/17/17 22/22/22 18/18/18
f 22/22/22 23/23/23 18/18/18
f 3/3/3 8/8/8 4/4/4
f 8/8/8 9/9/9 4/4/4
f 8/8/8 13/13/13 9/9/9
f 13/13/13 14/14/14 9/9/9
f 13/13/13 18/18/18 14/14/14
f 18/18/18 19/19/19 14/14/14
f 18/18/18 23/23/23 19/19/19
f 23/23/23 24/24/24 19/19/19
f 4/4/4 9/9/9 5/5/5
f 9/9/9 10/10/10 5/5/5
f 9/9/9 14/14/14 10/10/10
f 14/14/14 15/15/15 10/10/10
f 14/14/14 19/19/19 15/15/15
f 19/19/19 20/20/20 15/15/15
f 19/19/19 24/24/24 20/20/20
f 24/24/24 25/25/25 20/20/20
o Plane
v -0.08557015964209871 1.7490651606356449 0.1083622484343557
v -0.09082872053649405 1.7490651606356449 -0.09190842252678756
v 0.10425428235272405 1.7497588542714795 0.1033779769847031
v 0.09899572145832872 1.7497588542714795 -0.09689269397644017
vt 0 1
vt 1 1
vt 0 0
vt 1 0
vn -0.0036518536256047248 0.9999933273630609 0.00009588770325407387
vn -0.0036518536256047248 0.9999933273630609 0.00009588770325407387
vn -0.0036518536256047248 0.9999933273630609 0.00009588770325407387
vn -0.0036518536256047248 0.9999933273630609 0.00009588770325407387
f 26/26/26 28/28/28 27/27/27
f 28/28/28 29/29/29 27/27/27
o Plane
v -0.4663061625015809 0.10150209500900124 0.48591454536508283
v -0.4913444304608186 0.10150209500900104 -0.4676601730043254
v 0.5047699922770486 0.10505079159096781 0.4604167374809245
v 0.4797317243178109 0.1050507915909676 -0.4931579808884837
vt 0 1
vt 1 1
vt 0 0
vt 1 0
vn -0.003651853625604724 0.9999933273630608 0.00009588770325407384
vn -0.003651853625604724 0.9999933273630608 0.00009588770325407384
vn -0.003651853625604724 0.9999933273630608 0.00009588770325407384
vn -0.003651853625604724 0.9999933273630608 0.00009588770325407384
f 30/30/30 32/32/32 31/31/31
f 32/32/32 33/33/33 31/31/31
