o Cylinder
v 0 1.781200109365796 1
v 0.7071067690849304 1.781200109365796 0.7071067690849304
v 1 1.781200109365796 6.123234262925839e-17
v 0.7071067690849304 1.781200109365796 -0.7071067690849304
v 1.2246468525851679e-16 1.781200109365796 -1
v -0.7071067690849304 1.781200109365796 -0.7071067690849304
v -1 1.781200109365796 -1.8369701465288538e-16
v -0.7071067690849304 1.781200109365796 0.7071067690849304
v -2.4492937051703357e-16 1.781200109365796 1
v 0 0.14120012367091084 0.6800000071525574
v 0.48083260655403137 0.14120012367091084 0.48083260655403137
v 0.6800000071525574 0.14120012367091084 4.163799232615122e-17
v 0.48083260655403137 0.14120012367091084 -0.48083260655403137
v 8.327598465230243e-17 0.14120012367091084 -0.6800000071525574
v -0.48083260655403137 0.14120012367091084 -0.48083260655403137
v -0.6800000071525574 0.14120012367091084 -1.249139736697312e-16
v -0.48083260655403137 0.14120012367091084 0.48083260655403137
v -1.6655196930460487e-16 0.14120012367091084 0.6800000071525574
vt 0 1
vt 0.125 1
vt 0.25 1
vt 0.375 1
vt 0.5 1
vt 0.625 1
vt 0.75 1
vt 0.875 1
vt 1 1
vt 0 0
vt 0.125 0
vt 0.25 0
vt 0.375 0
vt 0.5 0
vt 0.625 0
vt 0.75 0
vt 0.875 0
vt 1 0
vn 0 -0.19151036046998826 0.9814905918207545
vn 0.694018652946946 -0.19151036192178558 0.694018652946946
vn 0.9814905918207545 -0.19151036046998826 6.009896498625667e-17
vn 0.694018652946946 -0.19151036192178558 -0.694018652946946
vn 1.2019792997251334e-16 -0.19151036046998826 -0.9814905918207545
vn -0.694018652946946 -0.19151036192178558 -0.694018652946946
vn -0.9814905918207545 -0.19151036046998826 -1.8029688834132524e-16
vn -0.694018652946946 -0.19151036192178558 0.694018652946946
vn -2.403958599450267e-16 -0.19151036046998826 0.9814905918207545
vn 0 -0.19151036046998826 0.9814905918207545
vn 0.694018652946946 -0.19151036192178558 0.694018652946946
vn 0.9814905918207545 -0.19151036046998826 6.009896498625667e-17
vn 0.694018652946946 -0.19151036192178558 -0.694018652946946
vn 1.2019792997251334e-16 -0.19151036046998826 -0.9814905918207545
vn -0.694018652946946 -0.19151036192178558 -0.694018652946946
vn -0.9814905918207545 -0.19151036046998826 -1.8029688834132524e-16
vn -0.694018652946946 -0.19151036192178558 0.694018652946946
vn -2.403958599450267e-16 -0.19151036046998826 0.9814905918207545
f 1/1/1 10/10/10 2/2/2
f 10/10/10 11/11/11 2/2/2
f 2/2/2 11/11/11 3/3/3
f 11/11/11 12/12/12 3/3/3
f 3/3/3 12/12/12 4/4/4
f 12/12/12 13/13/13 4/4/4
f 4/4/4 13/13/13 5/5/5
f 13/13/13 14/14/14 5/5/5
f 5/5/5 14/14/14 6/6/6
f 14/14/14 15/15/15 6/6/6
f 6/6/6 15/15/15 7/7/7
f 15/15/15 16/16/16 7/7/7
f 7/7/7 16/16/16 8/8/8
f 16/16/16 17/17/17 8/8/8
f 8/8/8 17/17/17 9/9/9
f 17/17/17 18/18/18 9/9/9
o Circle
v -0.00013614034649339635 1.7308707618696577 0.0036433351077403975
v 0.9778240830065787 1.7308707618696577 0.0036433351077403975
v 0.6913861534822745 1.7321044936290306 -0.6888292589963866
v -0.00013614034649333647 1.7326155220859536 -0.975660815806072
v -0.6916584341752612 1.7321044936290306 -0.6888292589963866
v -0.9780963636995657 1.7308707618696577 0.0036433351077402774
v -0.6916584341752612 1.7296370301102848 0.6961159292118674
v -0.000136140346493576 1.7291260016533618 0.9829474860215528
v 0.6913861534822745 1.7296370301102848 0.6961159292118674
v 0.9778240830065787 1.7308707618696577 0.0036433351077406373
vt 0.5 0.5
vt 1 0.5
vt 0.8535534143447876 0.8535534143447876
vt 0.5 1
vt 0.1464466154575348 0.8535534143447876
vt 0 0.5
vt 0.1464466154575348 0.1464466154575348
vt 0.5 0
vt 0.8535534143447876 0.1464466154575348
vt 1 0.5
vn 0 0.9999984128963891 0.0017816297884090115
vn 0 0.9999984128963891 0.0017816297884090115
vn 0 0.9999984128963891 0.0017816297884090115
vn 0 0.9999984128963891 0.0017816297884090115
vn 0 0.9999984128963891 0.0017816297884090115
vn 0 0.9999984128963891 0.0017816297884090115
vn 0 0.9999984128963891 0.0017816297884090115
vn 0 0.9999984128963891 0.0017816297884090115
vn 0 0.9999984128963891 0.0017816297884090115
vn 0 0.9999984128963891 0.0017816297884090115
f 20/20/20 21/21/21 19/19/19
f 21/21/21 22/22/22 19/19/19
f 22/22/22 23/23/23 19/19/19
f 23/23/23 24/24/24 19/19/19
f 24/24/24 25/25/25 19/19/19
f 25/25/25 26/26/26 19/19/19
f 26/26/26 27/27/27 19/19/19
f 27/27/27 28/28/28 19/19/19
o Circle
v -0.0013221843227133045 0.1434497307599808 -0.0008352845676132814
v 0.691202024763331 0.1434497307599808 -0.0008352845676132814
v 0.4883663716772163 0.1443132308919093 -0.48550318082873245
v -0.001322184322713262 0.14467090437856456 -0.6862592084374551
v -0.4910107403226429 0.1443132308919093 -0.48550318082873245
v -0.6938463934087575 0.1434497307599808 -0.0008352845676133653
v -0.4910107403226429 0.14258623062805229 0.4838326116935059
v -0.0013221843227134318 0.14222855714139704 0.6845886393022286
v 0.4883663716772163 0.14258623062805229 0.4838326116935059
v 0.691202024763331 0.1434497307599808 -0.0008352845676131136
vt 0.5 0.5
vt 1 0.5
vt 0.8535534143447876 0.8535534143447876
vt 0.5 1
vt 0.1464466154575348 0.8535534143447876
vt 0 0.5
vt 0.1464466154575348 0.1464466154575348
vt 0.5 0
vt 0.8535534143447876 0.1464466154575348
vt 1 0.5
vn 0 0.9999984128963891 0.0017816297884090118
vn 0 0.9999984128963891 0.0017816297884090118
vn 0 0.9999984128963891 0.0017816297884090118
vn 0 0.9999984128963891 0.0017816297884090118
vn 0 0.9999984128963891 0.0017816297884090118
vn 0 0.9999984128963891 0.0017816297884090118
vn 0 0.9999984128963891 0.0017816297884090118
vn 0 0.9999984128963891 0.0017816297884090118
vn 0 0.9999984128963891 0.0017816297884090118
vn 0 0.9999984128963891 0.0017816297884090118
f 30/30/30 31/31/31 29/29/29
f 31/31/31 32/32/32 29/29/29
f 32/32/32 33/33/33 29/29/29
f 33/33/33 34/34/34 29/29/29
f 34/34/34 35/35/35 29/29/29
f 35/35/35 36/36/36 29/29/29
f 36/36/36 37/37/37 29/29/29
f 37/37/37 38/38/38 29/29/29
